<svg width="59" height="41" viewBox="0 0 59 41" fill="none" xmlns="http://www.w3.org/2000/svg">
<path d="M37.25 12.75C37.25 17.5786 30.2713 19.235 29.1509 19.4698C29.0514 19.4908 28.9486 19.4908 28.8491 19.4698C27.7287 19.235 20.75 17.5786 20.75 12.75V7.27531C20.75 7.12135 20.7974 6.97113 20.8857 6.84503C20.974 6.71894 21.099 6.62307 21.2437 6.57046L28.7437 3.84319C28.9093 3.78298 29.0907 3.78298 29.2563 3.84319L36.7563 6.57046C36.901 6.62307 37.026 6.71894 37.1143 6.84503C37.2026 6.97113 37.25 7.12135 37.25 7.27531V12.75Z" stroke="#062646" stroke-width="2" stroke-linecap="round" stroke-linejoin="round"/>
<path d="M25.25 10.5H32.75" stroke="#062646" stroke-width="2" stroke-linecap="round" stroke-linejoin="round"/>
<path d="M25.25 13.5H32.75" stroke="#062646" stroke-width="2" stroke-linecap="round" stroke-linejoin="round"/>
<path d="M37.0072 14.25H38C38.5967 14.25 39.169 14.0129 39.591 13.591C40.0129 13.169 40.25 12.5967 40.25 12V9.75C40.25 9.15326 40.0129 8.58097 39.591 8.15901C39.169 7.73705 38.5967 7.5 38 7.5H37.25" stroke="#062646" stroke-width="2" stroke-linecap="round" stroke-linejoin="round"/>
<path d="M20.9929 14.25H20C19.4033 14.25 18.831 14.0129 18.409 13.591C17.9871 13.169 17.75 12.5967 17.75 12V9.75C17.75 9.15326 17.9871 8.58097 18.409 8.15901C18.831 7.73705 19.4033 7.5 20 7.5H20.75" stroke="#062646" stroke-width="2" stroke-linecap="round" stroke-linejoin="round"/>
<path d="M0.324 33.668C0.324 33.156 0.42 32.648 0.612 32.144C0.804 31.64 1.084 31.184 1.452 30.776C1.82 30.368 2.268 30.044 2.796 29.804C3.324 29.556 3.924 29.432 4.596 29.432C5.388 29.432 6.08 29.604 6.672 29.948C7.264 30.292 7.704 30.74 7.992 31.292L6.48 32.348C6.352 32.052 6.18 31.82 5.964 31.652C5.748 31.476 5.516 31.356 5.268 31.292C5.02 31.22 4.78 31.184 4.548 31.184C4.044 31.184 3.628 31.312 3.3 31.568C2.972 31.824 2.728 32.148 2.568 32.54C2.408 32.932 2.328 33.332 2.328 33.74C2.328 34.188 2.42 34.612 2.604 35.012C2.788 35.404 3.048 35.72 3.384 35.96C3.72 36.2 4.116 36.32 4.572 36.32C4.812 36.32 5.056 36.284 5.304 36.212C5.552 36.132 5.78 36.004 5.988 35.828C6.204 35.652 6.368 35.424 6.48 35.144L8.088 36.092C7.92 36.516 7.644 36.876 7.26 37.172C6.876 37.46 6.44 37.684 5.952 37.844C5.472 37.996 4.996 38.072 4.524 38.072C3.908 38.072 3.344 37.948 2.832 37.7C2.32 37.444 1.876 37.108 1.5 36.692C1.124 36.268 0.832 35.796 0.624 35.276C0.424 34.748 0.324 34.212 0.324 33.668ZM12.6925 38.072C12.0605 38.072 11.4845 37.952 10.9645 37.712C10.4525 37.464 10.0085 37.136 9.63253 36.728C9.25653 36.312 8.96853 35.848 8.76853 35.336C8.56853 34.816 8.46853 34.28 8.46853 33.728C8.46853 33.168 8.57253 32.632 8.78053 32.12C8.99653 31.6 9.29253 31.14 9.66853 30.74C10.0525 30.332 10.5045 30.012 11.0245 29.78C11.5445 29.548 12.1125 29.432 12.7285 29.432C13.3605 29.432 13.9325 29.556 14.4445 29.804C14.9645 30.044 15.4085 30.372 15.7765 30.788C16.1525 31.204 16.4405 31.672 16.6405 32.192C16.8405 32.704 16.9405 33.228 16.9405 33.764C16.9405 34.324 16.8325 34.864 16.6165 35.384C16.4085 35.896 16.1125 36.356 15.7285 36.764C15.3525 37.164 14.9045 37.484 14.3845 37.724C13.8725 37.956 13.3085 38.072 12.6925 38.072ZM10.4725 33.752C10.4725 34.192 10.5565 34.608 10.7245 35C10.8925 35.384 11.1445 35.7 11.4805 35.948C11.8165 36.196 12.2245 36.32 12.7045 36.32C13.2005 36.32 13.6125 36.192 13.9405 35.936C14.2765 35.68 14.5245 35.356 14.6845 34.964C14.8525 34.564 14.9365 34.152 14.9365 33.728C14.9365 33.288 14.8485 32.876 14.6725 32.492C14.5045 32.1 14.2525 31.784 13.9165 31.544C13.5885 31.304 13.1845 31.184 12.7045 31.184C12.2085 31.184 11.7925 31.312 11.4565 31.568C11.1285 31.816 10.8805 32.136 10.7125 32.528C10.5525 32.92 10.4725 33.328 10.4725 33.752ZM18.9739 29.48L20.9779 35.696L22.9579 29.48H25.0339L21.9379 38H20.0059L16.8859 29.48H18.9739ZM25.8238 38V29.48H27.7918V38H25.8238ZM29.4215 38V29.48H32.6015C33.5375 29.48 34.3175 29.672 34.9415 30.056C35.5735 30.432 36.0495 30.944 36.3695 31.592C36.6895 32.232 36.8495 32.944 36.8495 33.728C36.8495 34.592 36.6735 35.344 36.3215 35.984C35.9695 36.624 35.4735 37.12 34.8335 37.472C34.2015 37.824 33.4575 38 32.6015 38H29.4215ZM34.8455 33.728C34.8455 32.976 34.6495 32.368 34.2575 31.904C33.8655 31.44 33.3135 31.208 32.6015 31.208H31.3895V36.272H32.6015C33.0815 36.272 33.4895 36.164 33.8255 35.948C34.1615 35.724 34.4135 35.42 34.5815 35.036C34.7575 34.652 34.8455 34.216 34.8455 33.728ZM42.5968 29.48H44.7208L47.6488 38H45.6328L44.9728 36.092H42.3208L41.6728 38H39.6568L42.5968 29.48ZM44.6488 34.736L43.6528 31.46L42.6328 34.736H44.6488ZM48.4879 38V29.48H52.1239C52.5319 29.48 52.9039 29.564 53.2399 29.732C53.5839 29.892 53.8799 30.112 54.1279 30.392C54.3759 30.664 54.5679 30.972 54.7039 31.316C54.8399 31.66 54.9079 32.008 54.9079 32.36C54.9079 32.856 54.7919 33.324 54.5599 33.764C54.3359 34.204 54.0199 34.564 53.6119 34.844C53.2039 35.116 52.7279 35.252 52.1839 35.252H50.4559V38H48.4879ZM50.4559 33.536H52.0639C52.2959 33.536 52.4959 33.436 52.6639 33.236C52.8319 33.036 52.9159 32.744 52.9159 32.36C52.9159 31.968 52.8159 31.68 52.6159 31.496C52.4239 31.304 52.2159 31.208 51.9919 31.208H50.4559V33.536ZM55.9644 38V29.48H57.9324V38H55.9644Z" fill="#0EC9F9"/>
</svg>
