<svg width="28" height="28" viewBox="0 0 28 28" fill="none" xmlns="http://www.w3.org/2000/svg">
<rect width="28" height="28" fill="#E5E5E5"/>
<rect x="-24" y="-12" width="530" height="52" rx="10" fill="#D94C2D"/>
<path d="M25.894 20.5588L16.2724 3.93377C16.0416 3.53563 15.7102 3.20513 15.3114 2.97538C14.9126 2.74563 14.4605 2.62469 14.0003 2.62469C13.5401 2.62469 13.0879 2.74563 12.6892 2.97538C12.2904 3.20513 11.959 3.53563 11.7282 3.93377V3.93463L2.10661 20.5588C1.8756 20.9577 1.75374 21.4105 1.7533 21.8715C1.75285 22.3325 1.87383 22.7855 2.10406 23.1849C2.3343 23.5843 2.66566 23.916 3.06482 24.1467C3.46397 24.3773 3.91684 24.4988 4.37785 24.4988H23.6227C24.0837 24.4988 24.5366 24.3773 24.9357 24.1467C25.3349 23.916 25.6663 23.5843 25.8965 23.1849C26.1267 22.7855 26.2477 22.3325 26.2473 21.8715C26.2468 21.4105 26.125 20.9577 25.894 20.5588ZM13.1244 11.3747C13.1244 11.1426 13.2166 10.9201 13.3807 10.756C13.5448 10.5919 13.7674 10.4997 13.9994 10.4997C14.2315 10.4997 14.4541 10.5919 14.6181 10.756C14.7822 10.9201 14.8744 11.1426 14.8744 11.3747V15.7497C14.8744 15.9818 14.7822 16.2043 14.6181 16.3684C14.4541 16.5325 14.2315 16.6247 13.9994 16.6247C13.7674 16.6247 13.5448 16.5325 13.3807 16.3684C13.2166 16.2043 13.1244 15.9818 13.1244 15.7497V11.3747ZM14.0001 21C13.7405 21 13.4867 20.923 13.2709 20.7788C13.055 20.6346 12.8868 20.4296 12.7875 20.1898C12.6881 19.95 12.6621 19.6861 12.7128 19.4315C12.7634 19.1769 12.8884 18.943 13.072 18.7594C13.2555 18.5759 13.4894 18.4509 13.744 18.4002C13.9986 18.3496 14.2625 18.3756 14.5023 18.4749C14.7422 18.5743 14.9472 18.7425 15.0914 18.9583C15.2356 19.1742 15.3126 19.4279 15.3126 19.6875C15.3126 20.0356 15.1743 20.3694 14.9281 20.6156C14.682 20.8617 14.3482 21 14.0001 21Z" fill="white"/>
</svg>
